<?xml version="1.0" standalone="no"?>
<!DOCTYPE svg PUBLIC "-//W3C//DTD SVG 20010904//EN"
 "http://www.w3.org/TR/2001/REC-SVG-20010904/DTD/svg10.dtd">
<svg version="1.0" xmlns="http://www.w3.org/2000/svg"
 width="512.000000pt" height="512.000000pt" viewBox="0 0 512.000000 512.000000"
 preserveAspectRatio="xMidYMid meet">

<g transform="translate(0.000000,512.000000) scale(0.100000,-0.100000)"
fill="#000000" stroke="none">
<path d="M1729 5101 l-24 -19 -3 -308 -3 -308 -30 -34 c-72 -82 -124 -199
-138 -312 -27 -209 67 -498 239 -738 l60 -83 0 -175 0 -176 -592 -991 c-438
-733 -596 -1007 -607 -1048 -12 -47 -13 -65 -2 -111 15 -71 59 -140 110 -174
56 -36 362 -141 569 -194 36 -9 42 -14 42 -38 0 -43 43 -124 87 -163 49 -44
112 -69 308 -119 453 -118 916 -140 1361 -65 243 41 492 114 562 165 49 35 92
105 99 160 3 22 11 44 17 49 6 5 49 19 96 31 144 36 447 140 493 169 92 59
142 183 115 290 -10 43 -152 288 -606 1048 l-592 991 0 177 0 176 38 52 c62
84 142 222 179 310 127 299 110 571 -47 758 l-39 46 -3 308 -3 307 -24 19
c-30 25 -76 24 -101 -1 -19 -19 -20 -33 -20 -271 0 -235 -1 -251 -17 -244
-125 55 -286 71 -403 41 -84 -22 -180 -70 -234 -118 -24 -21 -49 -38 -56 -38
-7 0 -33 18 -58 40 -54 48 -145 94 -232 116 -117 30 -278 13 -402 -41 -17 -7
-18 8 -18 241 0 137 -4 254 -8 260 -10 16 -48 34 -70 34 -11 0 -30 -9 -43 -19z
m593 -653 c56 -28 91 -55 141 -108 89 -95 105 -95 194 0 50 53 85 80 141 108
69 34 83 37 176 40 83 3 112 0 160 -17 78 -28 147 -73 196 -129 176 -199 145
-495 -89 -849 l-61 -93 -129 0 c-152 0 -175 -10 -175 -75 0 -63 25 -75 155
-75 l109 0 0 -120 0 -120 -580 0 -580 0 0 120 0 120 295 0 296 0 24 25 c30 29
32 64 6 96 l-19 24 -323 5 -323 5 -57 85 c-191 281 -251 559 -160 745 55 112
138 187 256 232 51 20 76 23 166 20 99 -2 110 -4 181 -39z m-262 -1595 c0 -4
-102 -344 -226 -757 -243 -806 -236 -775 -180 -812 32 -20 70 -12 90 19 8 12
114 353 236 757 121 404 225 750 231 768 l11 32 338 0 339 0 25 -82 c349
-1148 698 -2322 698 -2350 1 -77 -42 -111 -200 -157 -289 -84 -512 -115 -847
-115 -268 0 -400 13 -630 60 -125 26 -357 89 -388 106 -28 15 -57 70 -57 109
0 20 34 147 75 284 49 161 73 255 69 271 -7 26 -49 54 -82 54 -40 0 -57 -36
-121 -251 -35 -118 -65 -215 -66 -217 -6 -7 -201 49 -369 106 -125 42 -176 63
-197 84 -37 37 -47 89 -25 134 9 19 275 469 592 999 l576 965 54 0 c30 0 54
-3 54 -7z m1690 -969 c321 -536 588 -992 593 -1013 13 -47 -12 -105 -55 -127
-73 -38 -533 -184 -542 -172 -4 5 -686 2273 -686 2281 0 4 24 7 54 7 l54 0
582 -976z"/>
<path d="M217 4800 c-23 -18 -26 -29 -29 -93 l-3 -72 -72 -3 c-64 -3 -75 -6
-93 -29 -25 -32 -26 -64 -1 -94 16 -20 30 -24 95 -27 l76 -4 0 -69 c0 -81 19
-109 73 -109 52 0 71 28 75 111 l4 69 65 0 c55 0 67 4 88 25 32 31 33 74 2
103 -19 18 -35 22 -90 22 l-67 0 0 54 c0 69 -15 111 -46 125 -35 15 -47 14
-77 -9z"/>
<path d="M4823 4808 c-28 -14 -43 -57 -43 -124 l0 -54 -68 0 c-59 0 -72 -3
-90 -23 -29 -31 -28 -72 3 -102 21 -21 33 -25 88 -25 l65 0 4 -69 c4 -83 23
-111 75 -111 54 0 73 28 73 109 l0 69 76 4 c65 3 79 7 95 27 25 30 24 62 -1
94 -18 23 -29 26 -93 29 l-72 3 -3 72 c-3 64 -6 75 -29 93 -28 22 -47 24 -80
8z"/>
<path d="M962 3360 c-29 -12 -42 -48 -42 -121 l0 -59 -70 0 c-83 0 -110 -18
-110 -74 0 -53 36 -76 116 -76 l64 0 0 -64 c0 -80 23 -116 76 -116 56 0 74 27
74 110 l0 70 60 0 c70 0 104 13 119 47 16 36 14 51 -14 78 -21 22 -33 25 -95
25 l-70 0 0 70 c0 62 -3 74 -25 95 -25 26 -45 30 -83 15z"/>
<path d="M4076 3347 c-23 -23 -26 -34 -26 -97 l0 -70 -70 0 c-62 0 -74 -3 -95
-25 -28 -27 -30 -42 -14 -78 15 -34 49 -47 119 -47 l60 0 0 -70 c0 -83 18
-110 74 -110 53 0 76 36 76 116 l0 64 64 0 c80 0 116 23 116 76 0 55 -27 74
-109 74 l-69 0 -4 75 c-4 83 -14 101 -65 111 -26 5 -37 1 -57 -19z"/>
<path d="M446 2507 c-23 -23 -26 -34 -26 -97 l0 -70 -70 0 c-62 0 -74 -3 -95
-25 -28 -27 -30 -42 -14 -78 15 -34 49 -47 119 -47 l60 0 0 -70 c0 -83 18
-110 74 -110 53 0 76 36 76 116 l0 64 64 0 c80 0 116 23 116 76 0 55 -27 74
-109 74 l-69 0 -4 75 c-4 83 -14 101 -65 111 -26 5 -37 1 -57 -19z"/>
<path d="M4592 2520 c-29 -12 -42 -48 -42 -121 l0 -59 -70 0 c-83 0 -110 -18
-110 -74 0 -53 36 -76 116 -76 l64 0 0 -64 c0 -80 23 -116 76 -116 56 0 74 27
74 110 l0 70 60 0 c70 0 104 13 119 47 16 36 14 51 -14 78 -21 22 -33 25 -95
25 l-70 0 0 70 c0 62 -3 74 -25 95 -25 26 -45 30 -83 15z"/>
</g>
</svg>
